<svg width="21" height="21" viewBox="0 0 21 21" fill="none" xmlns="http://www.w3.org/2000/svg">
<path fill-rule="evenodd" clip-rule="evenodd" d="M3.61347 16.1713L3.61349 16.157C2.92638 16.0587 2.39819 15.4678 2.39819 14.7535V14.0069C2.39819 13.5771 2.56891 13.165 2.87279 12.8611L3.61347 12.1204V9.28477C3.61347 5.48142 6.6967 2.39819 10.5 2.39819C14.3034 2.39819 17.3866 5.48142 17.3866 9.28477V12.1204L18.1273 12.8611C18.4312 13.165 18.6019 13.5771 18.6019 14.0069V14.7535C18.6019 15.4677 18.0739 16.0585 17.387 16.1569L17.3866 16.1713L13.307 16.1714C13.1104 17.5456 11.9286 18.6019 10.5 18.6019C9.07153 18.6019 7.88973 17.5456 7.69313 16.1714L3.61347 16.1713ZM12.0693 16.1717L8.93031 16.1713L8.95255 16.2482C9.15774 16.9077 9.77297 17.3866 10.5 17.3866C11.227 17.3866 11.8421 16.9079 12.0474 16.2486L12.0693 16.1717ZM4.83014 9.15812C4.89748 6.08444 7.4102 3.61347 10.5 3.61347C13.6322 3.61347 16.1713 6.1526 16.1713 9.28477V12.5567C16.1713 12.5997 16.1884 12.6409 16.2188 12.6713L17.268 13.7204L17.3031 13.7606C17.357 13.8309 17.3866 13.9173 17.3866 14.0069V14.7535L17.3832 14.7905C17.3676 14.8746 17.2996 14.9418 17.2146 14.9539L17.1974 14.9561H3.80224L3.78555 14.9539L3.75026 14.9455C3.67083 14.9184 3.61347 14.8418 3.61347 14.7535V14.0069L3.61698 13.9536C3.62862 13.8658 3.66881 13.7837 3.73212 13.7204L4.78129 12.6713C4.81168 12.6409 4.82875 12.5997 4.82875 12.5567V9.28477L4.83014 9.15812Z" fill="#EEEEEE"/>
</svg>
