<svg width="25" height="25" viewBox="0 0 25 25" fill="none" xmlns="http://www.w3.org/2000/svg">
<path fill-rule="evenodd" clip-rule="evenodd" d="M3.64575 19.7916L3.64578 19.7731C2.76236 19.6468 2.08325 18.887 2.08325 17.9687V17.0087C2.08325 16.4562 2.30275 15.9263 2.69345 15.5356L3.64575 14.5833V10.9374C3.64575 6.0474 7.6099 2.08325 12.4999 2.08325C17.3899 2.08325 21.3541 6.0474 21.3541 10.9374V14.5833L22.3064 15.5356C22.6971 15.9263 22.9166 16.4562 22.9166 17.0087V17.9687C22.9166 18.8868 22.2377 19.6465 21.3546 19.7731L21.3541 19.7916L16.1088 19.7917C15.856 21.5585 14.3366 22.9166 12.4999 22.9166C10.6633 22.9166 9.1438 21.5585 8.89102 19.7917L3.64575 19.7916ZM14.5175 19.7921L10.4817 19.7916L10.5103 19.8904C10.7741 20.7384 11.5651 21.3541 12.4999 21.3541C13.4345 21.3541 14.2254 20.7386 14.4894 19.8909L14.5175 19.7921ZM5.21003 10.7746C5.29662 6.82271 8.52726 3.64575 12.4999 3.64575C16.527 3.64575 19.7916 6.91034 19.7916 10.9374V15.1442C19.7916 15.1994 19.8135 15.2524 19.8526 15.2915L21.2015 16.6404L21.2467 16.692C21.316 16.7824 21.3541 16.8936 21.3541 17.0087V17.9687L21.3497 18.0162C21.3296 18.1244 21.2422 18.2107 21.1329 18.2264L21.1109 18.2291H3.88846L3.867 18.2264L3.82162 18.2155C3.71949 18.1807 3.64575 18.0821 3.64575 17.9687V17.0087L3.65027 16.9402C3.66523 16.8274 3.7169 16.7218 3.7983 16.6404L5.14723 15.2915C5.1863 15.2524 5.20825 15.1994 5.20825 15.1442V10.9374L5.21003 10.7746Z" fill="#171717"/>
</svg>
