<svg width="25" height="25" viewBox="0 0 25 25" fill="none" xmlns="http://www.w3.org/2000/svg">
<path fill-rule="evenodd" clip-rule="evenodd" d="M3.64575 19.7918L3.64578 19.7734C2.76236 19.647 2.08325 18.8873 2.08325 17.9689V17.0089C2.08325 16.4564 2.30275 15.9265 2.69345 15.5358L3.64575 14.5835V10.9377C3.64575 6.04764 7.6099 2.0835 12.4999 2.0835C17.3899 2.0835 21.3541 6.04764 21.3541 10.9377V14.5835L22.3064 15.5358C22.6971 15.9265 22.9166 16.4564 22.9166 17.0089V17.9689C22.9166 18.8871 22.2377 19.6467 21.3546 19.7733L21.3541 19.7918L16.1088 19.7919C15.856 21.5587 14.3366 22.9168 12.4999 22.9168C10.6633 22.9168 9.1438 21.5587 8.89102 19.7919L3.64575 19.7918ZM14.5175 19.7923L10.4817 19.7918L10.5103 19.8906C10.7741 20.7386 11.5651 21.3543 12.4999 21.3543C13.4345 21.3543 14.2254 20.7389 14.4894 19.8911L14.5175 19.7923ZM5.21003 10.7748C5.29662 6.82295 8.52726 3.646 12.4999 3.646C16.527 3.646 19.7916 6.91059 19.7916 10.9377V15.1444C19.7916 15.1997 19.8135 15.2527 19.8526 15.2917L21.2015 16.6407L21.2467 16.6923C21.316 16.7826 21.3541 16.8938 21.3541 17.0089V17.9689L21.3497 18.0165C21.3296 18.1246 21.2422 18.2109 21.1329 18.2266L21.1109 18.2293H3.88846L3.867 18.2266L3.82162 18.2157C3.71949 18.1809 3.64575 18.0824 3.64575 17.9689V17.0089L3.65027 16.9405C3.66523 16.8276 3.7169 16.7221 3.7983 16.6407L5.14723 15.2917C5.1863 15.2527 5.20825 15.1997 5.20825 15.1444V10.9377L5.21003 10.7748Z" fill="url(#paint0_linear_243_1284)"/>
<defs>
<linearGradient id="paint0_linear_243_1284" x1="12.4999" y1="2.0835" x2="12.4999" y2="22.9168" gradientUnits="userSpaceOnUse">
<stop stop-color="#E0304D"/>
<stop offset="1" stop-color="#EC6C21"/>
</linearGradient>
</defs>
</svg>
