<svg width="11" height="18" viewBox="0 0 11 18" fill="none" xmlns="http://www.w3.org/2000/svg">
<mask id="path-1-inside-1_13_28" fill="white">
<path fill-rule="evenodd" clip-rule="evenodd" d="M9.77998 17.6734C10.134 17.3234 10.134 16.7576 9.77998 16.4078L2.69847 9.40641L9.67878 2.50503C10.0327 2.15511 10.0327 1.58942 9.67878 1.2395C9.50212 1.06498 9.27046 0.977234 9.0387 0.977234C8.80684 0.977234 8.57518 1.06508 8.39862 1.2395L0.778434 8.77359C0.424547 9.12351 0.424547 9.68921 0.778434 10.0391L8.50002 17.6734C8.85391 18.0233 9.4261 18.0233 9.77998 17.6734Z"/>
</mask>
<path fill-rule="evenodd" clip-rule="evenodd" d="M9.77998 17.6734C10.134 17.3234 10.134 16.7576 9.77998 16.4078L2.69847 9.40641L9.67878 2.50503C10.0327 2.15511 10.0327 1.58942 9.67878 1.2395C9.50212 1.06498 9.27046 0.977234 9.0387 0.977234C8.80684 0.977234 8.57518 1.06508 8.39862 1.2395L0.778434 8.77359C0.424547 9.12351 0.424547 9.68921 0.778434 10.0391L8.50002 17.6734C8.85391 18.0233 9.4261 18.0233 9.77998 17.6734Z" fill="black"/>
<path d="M9.77998 16.4078L9.07691 17.1189L9.07707 17.1191L9.77998 16.4078ZM2.69847 9.40641L1.99539 8.69529L1.27614 9.40641L1.99539 10.1175L2.69847 9.40641ZM9.67878 2.50503L10.3819 3.21615L10.3819 3.21611L9.67878 2.50503ZM9.67878 1.2395L10.3819 0.528417L10.3816 0.528118L9.67878 1.2395ZM8.39862 1.2395L7.69582 0.528115L7.69555 0.528389L8.39862 1.2395ZM0.778434 8.77359L0.0753555 8.06248L0.0753279 8.06251L0.778434 8.77359ZM0.778434 10.0391L0.0753279 10.7502L0.0753613 10.7502L0.778434 10.0391ZM8.50002 17.6734L9.20313 16.9623L9.2031 16.9622L8.50002 17.6734ZM10.4831 18.3844C10.8758 17.9961 10.8794 17.363 10.4911 16.9702C10.1028 16.5775 9.4696 16.574 9.07688 16.9623L10.4831 18.3844ZM10.483 18.3845C11.2329 17.6432 11.2331 16.4379 10.4829 15.6965L9.07707 17.1191C9.03488 17.0774 9.03502 17.0036 9.07697 16.9622L10.483 18.3845ZM10.4831 15.6967L3.40154 8.69529L1.99539 10.1175L9.07691 17.1189L10.4831 15.6967ZM3.40154 10.1175L10.3819 3.21615L8.9757 1.79391L1.99539 8.69529L3.40154 10.1175ZM10.3819 3.21611C11.1316 2.47478 11.1316 1.26975 10.3819 0.528417L8.97567 1.95059C8.9337 1.90909 8.9337 1.83545 8.97567 1.79394L10.3819 3.21611ZM10.3816 0.528118C10.0098 0.160794 9.52214 -0.0227661 9.0387 -0.0227661V1.97723C9.01878 1.97723 8.99447 1.96916 8.97597 1.95089L10.3816 0.528118ZM9.0387 -0.0227661C8.55502 -0.0227661 8.06744 0.160987 7.69582 0.528115L9.10142 1.95089C9.08292 1.96917 9.05867 1.97723 9.0387 1.97723V-0.0227661ZM7.69555 0.528389L0.0753555 8.06248L1.48151 9.48471L9.1017 1.95061L7.69555 0.528389ZM0.0753279 8.06251C-0.674417 8.80384 -0.674417 10.0089 0.0753279 10.7502L1.48154 9.32804C1.52351 9.36954 1.52351 9.44318 1.48154 9.48468L0.0753279 8.06251ZM0.0753613 10.7502L7.79695 18.3845L9.2031 16.9622L1.48151 9.328L0.0753613 10.7502ZM7.79692 18.3844C8.5404 19.1196 9.73961 19.1196 10.4831 18.3844L9.07688 16.9623C9.11258 16.927 9.16743 16.927 9.20313 16.9623L7.79692 18.3844Z" fill="black" mask="url(#path-1-inside-1_13_28)"/>
</svg>
