<svg width="23" height="23" viewBox="0 0 23 23" fill="none" xmlns="http://www.w3.org/2000/svg">
<path d="M21.7682 2.3517H17.0807V0.565988C17.0807 0.44322 16.9802 0.342773 16.8575 0.342773H15.295C15.1722 0.342773 15.0717 0.44322 15.0717 0.565988V2.3517H7.92889V0.565988C7.92889 0.44322 7.82844 0.342773 7.70567 0.342773H6.14317C6.0204 0.342773 5.91996 0.44322 5.91996 0.565988V2.3517H1.23246C0.738595 2.3517 0.3396 2.7507 0.3396 3.24456V21.7713C0.3396 22.2652 0.738595 22.6642 1.23246 22.6642H21.7682C22.262 22.6642 22.661 22.2652 22.661 21.7713V3.24456C22.661 2.7507 22.262 2.3517 21.7682 2.3517ZM20.6521 20.6553H2.34853V10.0526H20.6521V20.6553ZM2.34853 8.15527V4.36063H5.91996V5.69992C5.91996 5.82269 6.0204 5.92313 6.14317 5.92313H7.70567C7.82844 5.92313 7.92889 5.82269 7.92889 5.69992V4.36063H15.0717V5.69992C15.0717 5.82269 15.1722 5.92313 15.295 5.92313H16.8575C16.9802 5.92313 17.0807 5.82269 17.0807 5.69992V4.36063H20.6521V8.15527H2.34853Z" fill="url(#paint0_linear_487_127)"/>
<defs>
<linearGradient id="paint0_linear_487_127" x1="11.5003" y1="0.342773" x2="11.5003" y2="22.6642" gradientUnits="userSpaceOnUse">
<stop stop-color="#E0304D"/>
<stop offset="1" stop-color="#EC6C21"/>
</linearGradient>
</defs>
</svg>
