<svg width="21" height="21" viewBox="0 0 21 21" fill="none" xmlns="http://www.w3.org/2000/svg">
<path d="M18.4865 3.38464H14.8407V1.99575C14.8407 1.90027 14.7625 1.82214 14.667 1.82214H13.4518C13.3563 1.82214 13.2782 1.90027 13.2782 1.99575V3.38464H7.7226V1.99575C7.7226 1.90027 7.64448 1.82214 7.54899 1.82214H6.33371C6.23823 1.82214 6.1601 1.90027 6.1601 1.99575V3.38464H2.51427C2.13015 3.38464 1.81982 3.69497 1.81982 4.07909V18.4888C1.81982 18.8729 2.13015 19.1833 2.51427 19.1833H18.4865C18.8706 19.1833 19.1809 18.8729 19.1809 18.4888V4.07909C19.1809 3.69497 18.8706 3.38464 18.4865 3.38464ZM17.6184 17.6208H3.38232V9.37423H17.6184V17.6208ZM3.38232 7.89853V4.94714H6.1601V5.98881C6.1601 6.0843 6.23823 6.16242 6.33371 6.16242H7.54899C7.64448 6.16242 7.7226 6.0843 7.7226 5.98881V4.94714H13.2782V5.98881C13.2782 6.0843 13.3563 6.16242 13.4518 6.16242H14.667C14.7625 6.16242 14.8407 6.0843 14.8407 5.98881V4.94714H17.6184V7.89853H3.38232Z" fill="#EEEEEE"/>
</svg>
