<svg width="11" height="11" viewBox="0 0 11 11" fill="none" xmlns="http://www.w3.org/2000/svg">
<path d="M6.25891 5.49994L10.1041 0.916443C10.1686 0.840271 10.1144 0.724548 10.0148 0.724548H8.84582C8.77697 0.724548 8.71106 0.75531 8.66565 0.808044L5.49426 4.58881L2.32287 0.808044C2.27893 0.75531 2.21301 0.724548 2.1427 0.724548H0.97375C0.874141 0.724548 0.819942 0.840271 0.884395 0.916443L4.72961 5.49994L0.884395 10.0834C0.819942 10.1596 0.874141 10.2753 0.97375 10.2753H2.1427C2.21154 10.2753 2.27746 10.2446 2.32287 10.1918L5.49426 6.41107L8.66565 10.1918C8.70959 10.2446 8.77551 10.2753 8.84582 10.2753H10.0148C10.1144 10.2753 10.1686 10.1596 10.1041 10.0834L6.25891 5.49994Z" fill="#EEEEEE"/>
</svg>
