<svg width="15" height="15" viewBox="0 0 15 15" fill="none" xmlns="http://www.w3.org/2000/svg">
<path d="M8.25891 7.49994L12.1041 2.91644C12.1686 2.84027 12.1144 2.72455 12.0148 2.72455H10.8458C10.777 2.72455 10.7111 2.75531 10.6656 2.80804L7.49426 6.58881L4.32287 2.80804C4.27893 2.75531 4.21301 2.72455 4.1427 2.72455H2.97375C2.87414 2.72455 2.81994 2.84027 2.88439 2.91644L6.72961 7.49994L2.88439 12.0834C2.81994 12.1596 2.87414 12.2753 2.97375 12.2753H4.1427C4.21154 12.2753 4.27746 12.2446 4.32287 12.1918L7.49426 8.41107L10.6656 12.1918C10.7096 12.2446 10.7755 12.2753 10.8458 12.2753H12.0148C12.1144 12.2753 12.1686 12.1596 12.1041 12.0834L8.25891 7.49994Z" fill="#EEEEEE"/>
</svg>
