<svg width="11" height="7" viewBox="0 0 11 7" fill="black" xmlns="http://www.w3.org/2000/svg">
<mask id="path-1-inside-1_733_60" fill="black">
<path fill-rule="evenodd" clip-rule="evenodd" d="M10.4041 0.931998C10.1942 0.719608 9.85472 0.719608 9.64483 0.931998L5.44398 5.18091L1.30315 0.992722C1.0932 0.78039 0.753785 0.78039 0.543835 0.992722C0.439122 1.09871 0.386475 1.23771 0.386475 1.37677C0.386475 1.51588 0.43918 1.65488 0.543835 1.76081L5.06429 6.33293C5.27424 6.54526 5.61366 6.54526 5.82361 6.33293L10.4041 1.69997C10.6141 1.48764 10.6141 1.14433 10.4041 0.931998Z"/>
</mask>
<path fill-rule="evenodd" clip-rule="evenodd" d="M10.4041 0.931998C10.1942 0.719608 9.85472 0.719608 9.64483 0.931998L5.44398 5.18091L1.30315 0.992722C1.0932 0.78039 0.753785 0.78039 0.543835 0.992722C0.439122 1.09871 0.386475 1.23771 0.386475 1.37677C0.386475 1.51588 0.43918 1.65488 0.543835 1.76081L5.06429 6.33293C5.27424 6.54526 5.61366 6.54526 5.82361 6.33293L10.4041 1.69997C10.6141 1.48764 10.6141 1.14433 10.4041 0.931998Z" fill="#000000"/>
<path d="M9.64483 0.931998L10.3559 1.63507L10.3561 1.63491L9.64483 0.931998ZM5.44398 5.18091L4.73286 5.88398L5.44398 6.60323L6.15509 5.88398L5.44398 5.18091ZM1.30315 0.992722L2.01427 0.289647L2.01424 0.289616L1.30315 0.992722ZM0.543835 0.992722L-0.16725 0.289616L-0.167549 0.289918L0.543835 0.992722ZM0.543835 1.76081L-0.167551 2.46362L-0.167278 2.46389L0.543835 1.76081ZM5.06429 6.33293L4.35318 7.03601L4.3532 7.03603L5.06429 6.33293ZM5.82361 6.33293L6.53469 7.03603L6.53472 7.036L5.82361 6.33293ZM10.4041 1.69997L9.69306 0.996867L9.69303 0.9969L10.4041 1.69997ZM11.1152 0.228891C10.7269 -0.16383 10.0938 -0.167402 9.70104 0.220913C9.30832 0.609228 9.30475 1.24238 9.69306 1.6351L11.1152 0.228891ZM11.1153 0.228989C10.514 -0.379335 9.53496 -0.379477 8.93355 0.229087L10.3561 1.63491C10.1745 1.81869 9.8744 1.81855 9.69297 1.63501L11.1153 0.228989ZM8.93371 0.228924L4.73286 4.47783L6.15509 5.88398L10.3559 1.63507L8.93371 0.228924ZM6.15509 4.47783L2.01427 0.289647L0.592036 1.6958L4.73286 5.88398L6.15509 4.47783ZM2.01424 0.289616C1.41287 -0.318575 0.434117 -0.318575 -0.16725 0.289616L1.25492 1.69583C1.07345 1.87935 0.773534 1.87935 0.592067 1.69583L2.01424 0.289616ZM-0.167549 0.289918C-0.465063 0.591065 -0.613526 0.986031 -0.613526 1.37677H1.38647C1.38647 1.48939 1.34331 1.60636 1.25522 1.69553L-0.167549 0.289918ZM-0.613526 1.37677C-0.613526 1.76771 -0.464909 2.16262 -0.167551 2.46362L1.25522 1.05801C1.34327 1.14714 1.38647 1.26406 1.38647 1.37677H-0.613526ZM-0.167278 2.46389L4.35318 7.03601L5.7754 5.62985L1.25495 1.05774L-0.167278 2.46389ZM4.3532 7.03603C4.95457 7.64422 5.93333 7.64422 6.53469 7.03603L5.11252 5.62982C5.29399 5.4463 5.59391 5.4463 5.77538 5.62982L4.3532 7.03603ZM6.53472 7.036L11.1153 2.40305L9.69303 0.9969L5.11249 5.62986L6.53472 7.036ZM11.1152 2.40308C11.7104 1.80116 11.7104 0.830815 11.1152 0.228891L9.69306 1.6351C9.51779 1.45784 9.51779 1.17413 9.69306 0.996867L11.1152 2.40308Z" fill="#000000" mask="url(#path-1-inside-1_733_60)"/>
</svg>
