<svg width="24" height="24" viewBox="0 0 24 24" fill="none" xmlns="http://www.w3.org/2000/svg">
<path d="M21.2838 8.27551L15.333 7.41067L12.6728 2.0177C12.6002 1.87004 12.4806 1.75051 12.333 1.67785C11.9627 1.49504 11.5127 1.64739 11.3275 2.0177L8.66736 7.41067L2.71658 8.27551C2.55252 8.29895 2.40252 8.37629 2.28767 8.49348C2.14883 8.63618 2.07233 8.82817 2.07496 9.02725C2.0776 9.22633 2.15917 9.41622 2.30174 9.5552L6.6072 13.7529L5.59002 19.6802C5.56616 19.8181 5.58142 19.9599 5.63406 20.0895C5.6867 20.2192 5.77461 20.3315 5.88783 20.4137C6.00105 20.496 6.13505 20.5448 6.27463 20.5548C6.4142 20.5647 6.55378 20.5354 6.67752 20.47L12.0002 17.6716L17.3228 20.47C17.4681 20.5474 17.6369 20.5732 17.7986 20.545C18.2064 20.4747 18.4806 20.088 18.4103 19.6802L17.3931 13.7529L21.6986 9.5552C21.8158 9.44035 21.8931 9.29035 21.9166 9.12629C21.9799 8.71614 21.6939 8.33645 21.2838 8.27551V8.27551Z" fill="#858585"/>
</svg>
