<svg width="25" height="25" viewBox="0 0 25 25" fill="none" xmlns="http://www.w3.org/2000/svg">
<path d="M12.6025 16.3264H11.032C10.4797 16.3264 10.032 16.7741 10.032 17.3264V22C10.032 22.5523 9.58426 23 9.03197 23H5.59521C5.04292 23 4.59521 22.5523 4.59521 22V15.1925C4.59521 14.6402 4.14749 14.1925 3.59521 14.1925H2.54712C1.6382 14.1925 1.20063 13.078 1.86676 12.4596L11.7688 3.26712C11.9538 3.09542 12.1968 3 12.4492 3H12.6025" stroke="url(#paint0_linear_294_494)" stroke-width="1.5" stroke-linecap="round" stroke-linejoin="round"/>
<path d="M12.3975 16.3264H13.968C14.5203 16.3264 14.968 16.7741 14.968 17.3264V22C14.968 22.5523 15.4157 23 15.968 23H19.4048C19.9571 23 20.4048 22.5523 20.4048 22V15.1925C20.4048 14.6402 20.8525 14.1925 21.4048 14.1925H22.4529C23.3618 14.1925 23.7994 13.078 23.1332 12.4596L13.2312 3.26712C13.0462 3.09542 12.8032 3 12.5508 3H12.3975" stroke="url(#paint1_linear_294_494)" stroke-width="1.5" stroke-linecap="round" stroke-linejoin="round"/>
<defs>
<linearGradient id="paint0_linear_294_494" x1="6.3013" y1="3" x2="6.3013" y2="23" gradientUnits="userSpaceOnUse">
<stop stop-color="#E0304D"/>
<stop offset="1" stop-color="#EC6C21"/>
</linearGradient>
<linearGradient id="paint1_linear_294_494" x1="18.6987" y1="3" x2="18.6987" y2="23" gradientUnits="userSpaceOnUse">
<stop stop-color="#E0304D"/>
<stop offset="1" stop-color="#EC6C21"/>
</linearGradient>
</defs>
</svg>
