<svg width="25" height="22" viewBox="0 0 25 22" fill="none" xmlns="http://www.w3.org/2000/svg">
<path d="M12.6024 14.3264H11.0318C10.4796 14.3264 10.0318 14.7741 10.0318 15.3264V20C10.0318 20.5523 9.58413 21 9.03185 21H5.59509C5.0428 21 4.59509 20.5523 4.59509 20V13.1925C4.59509 12.6402 4.14737 12.1925 3.59509 12.1925H2.547C1.63807 12.1925 1.20051 11.078 1.86664 10.4596L11.7687 1.26712C11.9536 1.09542 12.1967 1 12.449 1H12.6024" stroke="#171717" stroke-width="1.5" stroke-linecap="round" stroke-linejoin="round"/>
<path d="M12.3976 14.3264H13.9682C14.5204 14.3264 14.9682 14.7741 14.9682 15.3264V20C14.9682 20.5523 15.4159 21 15.9682 21H19.4049C19.9572 21 20.4049 20.5523 20.4049 20V13.1925C20.4049 12.6402 20.8526 12.1925 21.4049 12.1925H22.453C23.3619 12.1925 23.7995 11.078 23.1334 10.4596L13.2313 1.26712C13.0464 1.09542 12.8033 1 12.551 1H12.3976" stroke="#171717" stroke-width="1.5" stroke-linecap="round" stroke-linejoin="round"/>
</svg>
