<svg width="21" height="18" viewBox="0 0 21 18" fill="none" xmlns="http://www.w3.org/2000/svg">
<path d="M10.5797 11.6983H9.58038C9.02809 11.6983 8.58038 12.146 8.58038 12.6983V15.8889C8.58038 16.4412 8.13266 16.8889 7.58038 16.8889H5.35179C4.7995 16.8889 4.35179 16.4412 4.35179 15.8889V11.0386C4.35179 10.4863 3.89647 10.0386 3.34419 10.0386V10.0386C2.43526 10.0386 1.97834 8.92415 2.64447 8.30575L9.8673 1.6005C10.0523 1.42879 10.2953 1.33337 10.5477 1.33337H10.5797" stroke="#EEEEEE" stroke-width="1.5" stroke-linecap="round" stroke-linejoin="round"/>
<path d="M10.4203 11.6983H11.4196C11.9719 11.6983 12.4196 12.146 12.4196 12.6983V15.8889C12.4196 16.4412 12.8673 16.8889 13.4196 16.8889H15.6482C16.2005 16.8889 16.6482 16.4412 16.6482 15.8889V11.0386C16.6482 10.4863 17.1035 10.0386 17.6558 10.0386V10.0386C18.5647 10.0386 19.0217 8.92415 18.3555 8.30575L11.1327 1.6005C10.9477 1.42879 10.7047 1.33337 10.4523 1.33337H10.4203" stroke="#EEEEEE" stroke-width="1.5" stroke-linecap="round" stroke-linejoin="round"/>
</svg>
