<svg width="35" height="35" viewBox="0 0 35 35" fill="none" xmlns="http://www.w3.org/2000/svg">
<path d="M25.1428 15.9313H23.625V10.9313C23.625 9.35318 22.3459 8.07416 20.7678 8.07416H15.2321C13.654 8.07416 12.375 9.35318 12.375 10.9313V15.9313H10.8571C10.462 15.9313 10.1428 16.2505 10.1428 16.6456V25.217C10.1428 25.6121 10.462 25.9313 10.8571 25.9313H25.1428C25.5379 25.9313 25.8571 25.6121 25.8571 25.217V16.6456C25.8571 16.2505 25.5379 15.9313 25.1428 15.9313ZM13.9821 10.9313C13.9821 10.2416 14.5424 9.6813 15.2321 9.6813H20.7678C21.4576 9.6813 22.0178 10.2416 22.0178 10.9313V15.9313H13.9821V10.9313ZM24.25 24.3242H11.75V17.5384H24.25V24.3242ZM17.375 21.2215V22.4045C17.375 22.5027 17.4553 22.5831 17.5535 22.5831H18.4464C18.5446 22.5831 18.625 22.5027 18.625 22.4045V21.2215C18.8092 21.0892 18.9468 20.9019 19.0178 20.6864C19.0888 20.471 19.0896 20.2386 19.0201 20.0227C18.9506 19.8068 18.8144 19.6184 18.6311 19.4849C18.4478 19.3513 18.2268 19.2793 18 19.2793C17.7731 19.2793 17.5522 19.3513 17.3688 19.4849C17.1855 19.6184 17.0493 19.8068 16.9798 20.0227C16.9103 20.2386 16.9112 20.471 16.9822 20.6864C17.0532 20.9019 17.1907 21.0892 17.375 21.2215Z" fill="white"/>
<rect x="1" y="1" width="33" height="33" rx="16.5" stroke="white" stroke-width="2"/>
</svg>
