<svg width="21" height="21" viewBox="0 0 21 21" fill="none" xmlns="http://www.w3.org/2000/svg">
<g clip-path="url(#clip0_243_1278)">
<path d="M19.4583 12.9706L18.0368 11.7554C18.1041 11.343 18.1388 10.922 18.1388 10.501C18.1388 10.08 18.1041 9.659 18.0368 9.24668L19.4583 8.0314C19.5655 7.93962 19.6422 7.81737 19.6783 7.68092C19.7143 7.54447 19.708 7.40027 19.6601 7.26751L19.6405 7.21109C19.2492 6.11739 18.6633 5.10352 17.9109 4.21846L17.8719 4.17289C17.7806 4.06558 17.659 3.98844 17.523 3.95164C17.387 3.91484 17.2431 3.9201 17.1102 3.96673L15.3458 4.5939C14.6948 4.06004 13.9678 3.63904 13.1822 3.3439L12.8415 1.49928C12.8158 1.36048 12.7485 1.23279 12.6485 1.13317C12.5485 1.03355 12.4205 0.966722 12.2816 0.941555L12.223 0.930705C11.0924 0.726712 9.90314 0.726712 8.77249 0.930705L8.7139 0.941555C8.575 0.966722 8.44705 1.03355 8.34704 1.13317C8.24704 1.23279 8.17971 1.36048 8.154 1.49928L7.81112 3.35258C7.0318 3.64778 6.30606 4.06856 5.66268 4.59824L3.88534 3.96673C3.75245 3.91973 3.60841 3.91428 3.47235 3.9511C3.33629 3.98793 3.21466 4.06528 3.12362 4.17289L3.08456 4.21846C2.33314 5.10415 1.74727 6.11785 1.35496 7.21109L1.33543 7.26751C1.23777 7.53878 1.31807 7.8426 1.53725 8.0314L2.97605 9.2597C2.90878 9.66768 2.87623 10.0843 2.87623 10.4988C2.87623 10.9155 2.90878 11.3322 2.97605 11.738L1.53725 12.9663C1.43004 13.0581 1.3533 13.1803 1.31725 13.3168C1.2812 13.4532 1.28754 13.5974 1.33543 13.7302L1.35496 13.7866C1.74775 14.8804 2.32935 15.8895 3.08456 16.7792L3.12362 16.8248C3.21488 16.9321 3.33652 17.0093 3.4725 17.0461C3.60847 17.0829 3.75241 17.0776 3.88534 17.031L5.66268 16.3995C6.30939 16.9311 7.03204 17.3521 7.81112 17.6451L8.154 19.4984C8.17971 19.6372 8.24704 19.7649 8.34704 19.8645C8.44705 19.9641 8.575 20.031 8.7139 20.0561L8.77249 20.067C9.91352 20.2721 11.082 20.2721 12.223 20.067L12.2816 20.0561C12.4205 20.031 12.5485 19.9641 12.6485 19.8645C12.7485 19.7649 12.8158 19.6372 12.8415 19.4984L13.1822 17.6538C13.9675 17.3594 14.6986 16.937 15.3458 16.4038L17.1102 17.031C17.2431 17.078 17.3871 17.0834 17.5232 17.0466C17.6592 17.0098 17.7808 16.9324 17.8719 16.8248L17.9109 16.7792C18.6662 15.8873 19.2478 14.8804 19.6405 13.7866L19.6601 13.7302C19.7577 13.4633 19.6774 13.1594 19.4583 12.9706ZM16.496 9.50275C16.5503 9.83044 16.5785 10.1668 16.5785 10.5032C16.5785 10.8396 16.5503 11.1759 16.496 11.5036L16.3528 12.3738L17.9739 13.7606C17.7281 14.3267 17.4179 14.8627 17.0494 15.3578L15.0355 14.6438L14.3541 15.2037C13.8354 15.6291 13.2582 15.9633 12.6332 16.1976L11.8063 16.508L11.4179 18.613C10.805 18.6824 10.1862 18.6824 9.57327 18.613L9.18482 16.5036L8.36451 16.189C7.74602 15.9546 7.17093 15.6204 6.65661 15.1972L5.97518 14.6351L3.94827 15.3556C3.57935 14.8587 3.27119 14.3226 3.02379 13.7584L4.66225 12.3587L4.52119 11.4906C4.46911 11.1672 4.4409 10.833 4.4409 10.5032C4.4409 10.1712 4.46694 9.83912 4.52119 9.51577L4.66225 8.64772L3.02379 7.24798C3.26902 6.68157 3.57935 6.14772 3.94827 5.65076L5.97518 6.37124L6.65661 5.80918C7.17093 5.386 7.74602 5.0518 8.36451 4.81742L9.18699 4.50709L9.57544 2.39772C10.1853 2.32827 10.8081 2.32827 11.4201 2.39772L11.8085 4.50275L12.6353 4.81308C13.2582 5.04746 13.8376 5.38166 14.3563 5.80701L15.0377 6.3669L17.0516 5.65293C17.4205 6.14989 17.7287 6.68591 17.9761 7.25015L16.355 8.63687L16.496 9.50275ZM10.4999 6.46673C8.39055 6.46673 6.68048 8.1768 6.68048 10.2862C6.68048 12.3955 8.39055 14.1056 10.4999 14.1056C12.6093 14.1056 14.3194 12.3955 14.3194 10.2862C14.3194 8.1768 12.6093 6.46673 10.4999 6.46673ZM12.2187 12.0049C11.9932 12.231 11.7253 12.4103 11.4304 12.5324C11.1354 12.6546 10.8192 12.7172 10.4999 12.7167C9.85105 12.7167 9.24124 12.4628 8.78117 12.0049C8.5551 11.7795 8.37582 11.5116 8.25366 11.2166C8.1315 10.9216 8.06887 10.6054 8.06937 10.2862C8.06937 9.6373 8.32327 9.02749 8.78117 8.56742C9.24124 8.10735 9.85105 7.85562 10.4999 7.85562C11.1488 7.85562 11.7586 8.10735 12.2187 8.56742C12.4448 8.79285 12.624 9.06076 12.7462 9.35573C12.8683 9.6507 12.931 9.96691 12.9305 10.2862C12.9305 10.935 12.6766 11.5449 12.2187 12.0049Z" fill="#EEEEEE"/>
</g>
<defs>
<clipPath id="clip0_243_1278">
<rect width="19.4444" height="19.4444" fill="white" transform="translate(0.777832 0.777832)"/>
</clipPath>
</defs>
</svg>
