<svg width="25" height="25" viewBox="0 0 25 25" fill="none" xmlns="http://www.w3.org/2000/svg">
<path d="M24.0176 15.6766L22.1901 14.1141C22.2765 13.584 22.3212 13.0427 22.3212 12.5014C22.3212 11.9601 22.2765 11.4188 22.1901 10.8887L24.0176 9.32617C24.1555 9.20817 24.2541 9.05099 24.3005 8.87555C24.3468 8.70012 24.3387 8.51472 24.2771 8.34403L24.252 8.27148C23.7489 6.86531 22.9955 5.56176 22.0282 4.42383L21.978 4.36523C21.8607 4.22727 21.7043 4.12809 21.5294 4.08077C21.3546 4.03345 21.1696 4.04021 20.9986 4.10017L18.7302 4.90653C17.8932 4.22014 16.9585 3.67885 15.9484 3.29939L15.5104 0.927734C15.4773 0.749281 15.3907 0.585107 15.2622 0.457025C15.1336 0.328943 14.9691 0.243015 14.7905 0.210658L14.7152 0.196708C13.2615 -0.0655692 11.7325 -0.0655692 10.2788 0.196708L10.2034 0.210658C10.0249 0.243015 9.86035 0.328943 9.73177 0.457025C9.60319 0.585107 9.51663 0.749281 9.48358 0.927734L9.04273 3.31055C8.04074 3.69009 7.10765 4.2311 6.28045 4.91211L3.9953 4.10017C3.82444 4.03974 3.63924 4.03273 3.46431 4.08008C3.28938 4.12742 3.133 4.22688 3.01594 4.36523L2.96572 4.42383C1.99961 5.56257 1.24635 6.8659 0.741949 8.27148L0.716837 8.34403C0.591279 8.6928 0.694516 9.08343 0.976324 9.32617L2.82621 10.9054C2.73972 11.43 2.69786 11.9657 2.69786 12.4986C2.69786 13.0343 2.73972 13.57 2.82621 14.0918L0.976324 15.671C0.838477 15.789 0.739819 15.9462 0.693467 16.1217C0.647115 16.2971 0.655266 16.4825 0.716837 16.6532L0.741949 16.7257C1.24697 18.132 1.99474 19.4294 2.96572 20.5734L3.01594 20.632C3.13328 20.7699 3.28967 20.8691 3.4645 20.9164C3.63933 20.9638 3.82439 20.957 3.9953 20.897L6.28045 20.0851C7.11193 20.7687 8.04106 21.31 9.04273 21.6867L9.48358 24.0695C9.51663 24.2479 9.60319 24.4121 9.73177 24.5402C9.86035 24.6683 10.0249 24.7542 10.2034 24.7866L10.2788 24.8005C11.7458 25.0642 13.2481 25.0642 14.7152 24.8005L14.7905 24.7866C14.9691 24.7542 15.1336 24.6683 15.2622 24.5402C15.3907 24.4121 15.4773 24.2479 15.5104 24.0695L15.9484 21.6978C16.9581 21.3194 17.898 20.7763 18.7302 20.0907L20.9986 20.897C21.1695 20.9575 21.3547 20.9645 21.5296 20.9171C21.7046 20.8698 21.8609 20.7703 21.978 20.632L22.0282 20.5734C22.9992 19.4266 23.747 18.132 24.252 16.7257L24.2771 16.6532C24.4027 16.31 24.2994 15.9194 24.0176 15.6766ZM20.209 11.2179C20.2788 11.6392 20.3151 12.0717 20.3151 12.5042C20.3151 12.9367 20.2788 13.3691 20.209 13.7905L20.0249 14.9093L22.1091 16.6922C21.7932 17.4202 21.3943 18.1092 20.9205 18.7458L18.3312 17.8278L17.4551 18.5477C16.7883 19.0946 16.0461 19.5243 15.2425 19.8256L14.1794 20.2246L13.68 22.9311C12.892 23.0204 12.0964 23.0204 11.3084 22.9311L10.8089 20.219L9.75423 19.8145C8.95902 19.5131 8.21963 19.0834 7.55836 18.5393L6.68224 17.8167L4.07621 18.743C3.60188 18.1041 3.20568 17.4149 2.8876 16.6895L4.99418 14.8898L4.81282 13.7737C4.74586 13.358 4.70958 12.9283 4.70958 12.5042C4.70958 12.0773 4.74307 11.6504 4.81282 11.2347L4.99418 10.1186L2.8876 8.31892C3.20289 7.59068 3.60188 6.9043 4.07621 6.26535L6.68224 7.19169L7.55836 6.46903C8.21963 5.92494 8.95902 5.49526 9.75423 5.19392L10.8117 4.79492L11.3111 2.08287C12.0952 1.99358 12.896 1.99358 13.6828 2.08287L14.1822 4.78934L15.2453 5.18834C16.0461 5.48968 16.7911 5.91936 17.4579 6.46624L18.334 7.1861L20.9233 6.26814C21.3976 6.90709 21.7938 7.59626 22.1119 8.32171L20.0277 10.1046L20.209 11.2179ZM12.4998 7.31445C9.78771 7.31445 7.58905 9.51311 7.58905 12.2252C7.58905 14.9372 9.78771 17.1359 12.4998 17.1359C15.2118 17.1359 17.4105 14.9372 17.4105 12.2252C17.4105 9.51311 15.2118 7.31445 12.4998 7.31445ZM14.7096 14.435C14.4197 14.7257 14.0753 14.9562 13.696 15.1132C13.3168 15.2703 12.9102 15.3508 12.4998 15.3502C11.6655 15.3502 10.8815 15.0237 10.2899 14.435C9.99927 14.1452 9.76877 13.8007 9.61171 13.4215C9.45465 13.0422 9.37412 12.6356 9.37476 12.2252C9.37476 11.3909 9.70121 10.6069 10.2899 10.0153C10.8815 9.42383 11.6655 9.10017 12.4998 9.10017C13.334 9.10017 14.1181 9.42383 14.7096 10.0153C15.0003 10.3052 15.2308 10.6496 15.3878 11.0289C15.5449 11.4081 15.6254 11.8147 15.6248 12.2252C15.6248 13.0594 15.2983 13.8435 14.7096 14.435Z" fill="#171717"/>
</svg>
