<svg width="35" height="35" viewBox="0 0 35 35" fill="none" xmlns="http://www.w3.org/2000/svg">
<path d="M22.912 20.0807C23.6113 20.7775 24.1685 21.6036 24.5525 22.5131C24.9311 23.4068 25.1326 24.3534 25.153 25.3263C25.1538 25.3609 25.1477 25.3954 25.135 25.4276C25.1223 25.46 25.1033 25.4895 25.079 25.5144C25.0547 25.5393 25.0256 25.5591 24.9936 25.5726C24.9615 25.5862 24.9271 25.5931 24.8923 25.5931C24.8923 25.5931 24.8923 25.5931 24.8923 25.5931H23.6869C23.5446 25.5931 23.4296 25.4818 23.4263 25.3388M22.912 20.0807L14.4755 18.5697C13.6087 18.9475 12.8294 19.4797 12.1577 20.1534L12.0871 20.0826M22.912 20.0807C22.2493 19.4167 21.4704 18.8805 20.6145 18.4987M22.912 20.0807L20.6145 18.4987M23.4263 25.3388C23.4263 25.3388 23.4263 25.3387 23.4263 25.3387L23.5262 25.3364M23.4263 25.3388C23.4263 25.3389 23.4263 25.3389 23.4263 25.339L23.5262 25.3364M23.4263 25.3388C23.3867 23.8136 22.7744 22.3856 21.6917 21.3029C20.5714 20.1826 19.0841 19.5663 17.4994 19.5663C15.9148 19.5663 14.4275 20.1826 13.3072 21.3029C12.2244 22.3856 11.6121 23.8137 11.5726 25.339C11.5692 25.479 11.4551 25.5931 11.3119 25.5931H10.1066C10.1066 25.5931 10.1066 25.5931 10.1066 25.5931C10.0718 25.5931 10.0374 25.5862 10.0053 25.5726C9.97325 25.5591 9.94421 25.5393 9.91992 25.5144C9.89562 25.4895 9.87655 25.46 9.86384 25.4276C9.85116 25.3953 9.84506 25.3608 9.84589 25.3261M23.5262 25.3364C23.5282 25.4248 23.5985 25.4931 23.6869 25.4931H24.8923L23.5262 25.3364ZM9.84589 25.3261C9.86462 24.3593 10.0685 23.4051 10.4464 22.515C10.8311 21.6059 11.3882 20.7799 12.087 20.0827C12.087 20.0826 12.087 20.0826 12.0871 20.0826M9.84589 25.3261C9.84589 25.3261 9.8459 25.326 9.8459 25.3259L9.94578 25.3284L9.84589 25.3264C9.84589 25.3263 9.84589 25.3262 9.84589 25.3261ZM12.0871 20.0826C12.7544 19.4134 13.5267 18.8819 14.3844 18.5005M12.0871 20.0826L14.3844 18.5005M14.3844 18.5005C13.1873 17.57 12.4173 16.1165 12.4173 14.4842C12.4173 11.6767 14.692 9.40202 17.4994 9.40202C20.3069 9.40202 22.5816 11.6767 22.5816 14.4842C22.5816 16.1164 21.8116 17.57 20.6145 18.4987M14.3844 18.5005L20.6145 18.4987M17.4994 17.8395C16.6039 17.8395 15.7615 17.4905 15.1273 16.8563C14.4931 16.2221 14.1441 15.3797 14.1441 14.4842C14.1441 13.5886 14.4931 12.7462 15.1273 12.112C15.7615 11.4779 16.6039 11.1288 17.4994 11.1288C18.395 11.1288 19.2374 11.4779 19.8716 12.112C20.5058 12.7462 20.8548 13.5886 20.8548 14.4842C20.8548 15.3797 20.5058 16.2221 19.8716 16.8563C19.2374 17.4905 18.395 17.8395 17.4994 17.8395Z" fill="black" stroke="black" stroke-width="0.2"/>
<rect x="1" y="1" width="33" height="33" rx="16.5" stroke="black" stroke-width="2"/>
</svg>
