<svg width="35" height="35" viewBox="0 0 35 35" fill="none" xmlns="http://www.w3.org/2000/svg">
<mask id="path-1-inside-1_466_105" fill="white">
<path d="M30.875 28.7852C30.8828 28.7734 30.8945 28.7617 30.9023 28.75C33.4609 25.707 35 21.7852 35 17.5C35 13.2148 33.4609 9.29297 30.9062 6.25C30.8984 6.23828 30.8867 6.23047 30.8789 6.21875C30.8359 6.16797 30.7969 6.12109 30.7539 6.07422C30.7383 6.05469 30.7227 6.03906 30.707 6.01953L30.5469 5.83594L30.543 5.83203C30.4844 5.76562 30.4219 5.69922 30.3633 5.63281L30.3594 5.62891C30.2344 5.49609 30.1094 5.36328 29.9805 5.23438L29.9766 5.23047L29.7891 5.04297L29.7773 5.03125C29.7188 4.97266 29.6602 4.91797 29.6016 4.86328C29.582 4.84375 29.5625 4.82422 29.5391 4.80469C29.5 4.76562 29.4609 4.73047 29.4219 4.69531C29.4102 4.68359 29.3945 4.67188 29.3828 4.65625C26.2656 1.76562 22.0898 0 17.5 0C12.9102 0 8.73438 1.76562 5.61328 4.65625C5.60156 4.66797 5.58594 4.67969 5.57422 4.69531C5.53516 4.73047 5.49609 4.76953 5.45703 4.80859C5.4375 4.82812 5.41797 4.84766 5.39453 4.86719C5.33594 4.92188 5.27734 4.98047 5.21875 5.03516L5.20703 5.04688L5.01953 5.23438L5.01562 5.23828C4.88672 5.36719 4.76172 5.5 4.63672 5.63281L4.63281 5.63672C4.57031 5.70312 4.51172 5.76953 4.45312 5.83594L4.44922 5.83984C4.39453 5.89844 4.33984 5.96094 4.28906 6.02344C4.27344 6.04297 4.25781 6.05859 4.24219 6.07812C4.19922 6.125 4.16016 6.17578 4.11719 6.22266C4.10937 6.23438 4.09766 6.24219 4.08984 6.25391C1.53906 9.29297 0 13.2148 0 17.5C0 21.7852 1.53906 25.707 4.09375 28.75C4.10156 28.7617 4.11328 28.7734 4.12109 28.7852L4.24219 28.9297C4.25781 28.9492 4.27344 28.9648 4.28906 28.9844L4.44922 29.168C4.44922 29.1719 4.45312 29.1719 4.45312 29.1758C4.51172 29.2422 4.57031 29.3086 4.63281 29.3711L4.63672 29.375C4.76172 29.5078 4.88672 29.6406 5.01172 29.7695L5.01562 29.7734C5.07812 29.8359 5.13672 29.8984 5.19922 29.957L5.21094 29.9688C5.33984 30.0977 5.47266 30.2227 5.60547 30.3438C8.73438 33.2344 12.9102 35 17.5 35C22.0898 35 26.2656 33.2344 29.3867 30.3438C29.5198 30.2218 29.65 30.0967 29.7773 29.9688L29.7891 29.957C29.8516 29.8945 29.9141 29.8359 29.9727 29.7734L29.9766 29.7695C30.1055 29.6406 30.2305 29.5078 30.3516 29.375L30.3555 29.3711C30.4141 29.3047 30.4766 29.2422 30.5352 29.1758C30.5352 29.1719 30.5391 29.1719 30.5391 29.168C30.5938 29.1094 30.6484 29.0469 30.6992 28.9844C30.7148 28.9648 30.7305 28.9492 30.7461 28.9297C30.7903 28.8826 30.8332 28.8344 30.875 28.7852ZM31.0352 23.2148C30.4961 24.4883 29.7852 25.668 28.918 26.7383C27.9413 25.8942 26.8735 25.1618 25.7344 24.5547C26.1875 22.7227 26.4688 20.7109 26.543 18.5938H32.1484C32.0312 20.1914 31.6562 21.7422 31.0352 23.2148ZM32.1484 16.4062H26.543C26.4688 14.2891 26.1875 12.2773 25.7344 10.4453C26.8789 9.83594 27.9453 9.10156 28.918 8.26172C30.803 10.5819 31.9306 13.4248 32.1484 16.4062ZM23.2148 3.96484C24.7656 4.62109 26.1758 5.52734 27.418 6.66797C26.6964 7.28239 25.9196 7.82898 25.0977 8.30078C24.4844 6.54297 23.6992 5.01562 22.7852 3.79297C22.9297 3.84766 23.0742 3.90625 23.2148 3.96484ZM19.6758 31.332C19.3164 31.6133 18.957 31.8281 18.5938 31.9727V24.7266C20.1437 24.8347 21.6679 25.1799 23.1133 25.75C22.7891 26.7109 22.4141 27.5977 21.9805 28.3984C21.3008 29.6641 20.5039 30.6758 19.6758 31.332ZM21.9805 6.60156C22.4102 7.40625 22.7891 8.29297 23.1133 9.25C21.6679 9.82014 20.1437 10.1653 18.5938 10.2734V3.03125C18.9531 3.17578 19.3164 3.38672 19.6758 3.67188C20.5039 4.32422 21.3008 5.33594 21.9805 6.60156ZM18.5938 22.5352V18.5938H24.3555C24.293 20.3203 24.0781 21.9961 23.7188 23.5859L23.707 23.6328C22.0677 23.0112 20.3438 22.6411 18.5938 22.5352ZM18.5938 16.4062V12.4648C20.3828 12.3555 22.1016 11.9766 23.707 11.3672L23.7188 11.4141C24.0781 13.0039 24.293 14.6758 24.3555 16.4062H18.5938ZM16.4062 18.5938V22.5352C14.6172 22.6445 12.8984 23.0234 11.293 23.6328L11.2812 23.5859C10.9219 21.9961 10.707 20.3242 10.6445 18.5938H16.4062ZM10.6445 16.4062C10.707 14.6797 10.9219 13.0039 11.2812 11.4141L11.293 11.3672C12.8984 11.9766 14.6133 12.3555 16.4062 12.4648V16.4062H10.6445ZM16.4062 24.7266V31.9688C16.0469 31.8242 15.6836 31.6133 15.3242 31.3281C14.4961 30.6758 13.6953 29.6602 13.0156 28.3945C12.5859 27.5898 12.207 26.7031 11.8828 25.7461C13.3359 25.1758 14.8477 24.8359 16.4062 24.7266ZM16.4062 10.2734C14.8563 10.1653 13.3321 9.82014 11.8867 9.25C12.2109 8.28906 12.5859 7.40234 13.0195 6.60156C13.6992 5.33594 14.4961 4.32031 15.3281 3.66797C15.6875 3.38672 16.0469 3.17188 16.4102 3.02734V10.2734H16.4062ZM11.7852 3.96484C11.9297 3.90625 12.0703 3.84766 12.2148 3.79297C11.3008 5.01562 10.5156 6.54297 9.90234 8.30078C9.08203 7.83203 8.30469 7.28516 7.58203 6.66797C8.82422 5.52734 10.2344 4.62109 11.7852 3.96484ZM3.96484 11.7852C4.50391 10.5117 5.21484 9.33203 6.08203 8.26172C7.05469 9.10156 8.12109 9.83594 9.26562 10.4453C8.8125 12.2773 8.53125 14.2891 8.45703 16.4062H2.85156C2.96875 14.8086 3.34375 13.2578 3.96484 11.7852ZM2.85156 18.5938H8.45703C8.53125 20.7109 8.8125 22.7227 9.26562 24.5547C8.12649 25.1618 7.05868 25.8942 6.08203 26.7383C4.19699 24.4181 3.06941 21.5752 2.85156 18.5938ZM11.7852 31.0352C10.2344 30.3789 8.82422 29.4727 7.58203 28.332C8.30469 27.7148 9.08203 27.1719 9.90234 26.6992C10.5156 28.457 11.3008 29.9844 12.2148 31.207C12.0703 31.1523 11.9258 31.0938 11.7852 31.0352ZM23.2148 31.0352C23.0703 31.0938 22.9297 31.1523 22.7852 31.207C23.6992 29.9844 24.4844 28.457 25.0977 26.6992C25.918 27.168 26.6953 27.7148 27.418 28.332C26.1827 29.4679 24.7608 30.3823 23.2148 31.0352Z"/>
</mask>
<path d="M30.875 28.7852C30.8828 28.7734 30.8945 28.7617 30.9023 28.75C33.4609 25.707 35 21.7852 35 17.5C35 13.2148 33.4609 9.29297 30.9062 6.25C30.8984 6.23828 30.8867 6.23047 30.8789 6.21875C30.8359 6.16797 30.7969 6.12109 30.7539 6.07422C30.7383 6.05469 30.7227 6.03906 30.707 6.01953L30.5469 5.83594L30.543 5.83203C30.4844 5.76562 30.4219 5.69922 30.3633 5.63281L30.3594 5.62891C30.2344 5.49609 30.1094 5.36328 29.9805 5.23438L29.9766 5.23047L29.7891 5.04297L29.7773 5.03125C29.7188 4.97266 29.6602 4.91797 29.6016 4.86328C29.582 4.84375 29.5625 4.82422 29.5391 4.80469C29.5 4.76562 29.4609 4.73047 29.4219 4.69531C29.4102 4.68359 29.3945 4.67188 29.3828 4.65625C26.2656 1.76562 22.0898 0 17.5 0C12.9102 0 8.73438 1.76562 5.61328 4.65625C5.60156 4.66797 5.58594 4.67969 5.57422 4.69531C5.53516 4.73047 5.49609 4.76953 5.45703 4.80859C5.4375 4.82812 5.41797 4.84766 5.39453 4.86719C5.33594 4.92188 5.27734 4.98047 5.21875 5.03516L5.20703 5.04688L5.01953 5.23438L5.01562 5.23828C4.88672 5.36719 4.76172 5.5 4.63672 5.63281L4.63281 5.63672C4.57031 5.70312 4.51172 5.76953 4.45312 5.83594L4.44922 5.83984C4.39453 5.89844 4.33984 5.96094 4.28906 6.02344C4.27344 6.04297 4.25781 6.05859 4.24219 6.07812C4.19922 6.125 4.16016 6.17578 4.11719 6.22266C4.10937 6.23438 4.09766 6.24219 4.08984 6.25391C1.53906 9.29297 0 13.2148 0 17.5C0 21.7852 1.53906 25.707 4.09375 28.75C4.10156 28.7617 4.11328 28.7734 4.12109 28.7852L4.24219 28.9297C4.25781 28.9492 4.27344 28.9648 4.28906 28.9844L4.44922 29.168C4.44922 29.1719 4.45312 29.1719 4.45312 29.1758C4.51172 29.2422 4.57031 29.3086 4.63281 29.3711L4.63672 29.375C4.76172 29.5078 4.88672 29.6406 5.01172 29.7695L5.01562 29.7734C5.07812 29.8359 5.13672 29.8984 5.19922 29.957L5.21094 29.9688C5.33984 30.0977 5.47266 30.2227 5.60547 30.3438C8.73438 33.2344 12.9102 35 17.5 35C22.0898 35 26.2656 33.2344 29.3867 30.3438C29.5198 30.2218 29.65 30.0967 29.7773 29.9688L29.7891 29.957C29.8516 29.8945 29.9141 29.8359 29.9727 29.7734L29.9766 29.7695C30.1055 29.6406 30.2305 29.5078 30.3516 29.375L30.3555 29.3711C30.4141 29.3047 30.4766 29.2422 30.5352 29.1758C30.5352 29.1719 30.5391 29.1719 30.5391 29.168C30.5938 29.1094 30.6484 29.0469 30.6992 28.9844C30.7148 28.9648 30.7305 28.9492 30.7461 28.9297C30.7903 28.8826 30.8332 28.8344 30.875 28.7852ZM31.0352 23.2148C30.4961 24.4883 29.7852 25.668 28.918 26.7383C27.9413 25.8942 26.8735 25.1618 25.7344 24.5547C26.1875 22.7227 26.4688 20.7109 26.543 18.5938H32.1484C32.0312 20.1914 31.6562 21.7422 31.0352 23.2148ZM32.1484 16.4062H26.543C26.4688 14.2891 26.1875 12.2773 25.7344 10.4453C26.8789 9.83594 27.9453 9.10156 28.918 8.26172C30.803 10.5819 31.9306 13.4248 32.1484 16.4062ZM23.2148 3.96484C24.7656 4.62109 26.1758 5.52734 27.418 6.66797C26.6964 7.28239 25.9196 7.82898 25.0977 8.30078C24.4844 6.54297 23.6992 5.01562 22.7852 3.79297C22.9297 3.84766 23.0742 3.90625 23.2148 3.96484ZM19.6758 31.332C19.3164 31.6133 18.957 31.8281 18.5938 31.9727V24.7266C20.1437 24.8347 21.6679 25.1799 23.1133 25.75C22.7891 26.7109 22.4141 27.5977 21.9805 28.3984C21.3008 29.6641 20.5039 30.6758 19.6758 31.332ZM21.9805 6.60156C22.4102 7.40625 22.7891 8.29297 23.1133 9.25C21.6679 9.82014 20.1437 10.1653 18.5938 10.2734V3.03125C18.9531 3.17578 19.3164 3.38672 19.6758 3.67188C20.5039 4.32422 21.3008 5.33594 21.9805 6.60156ZM18.5938 22.5352V18.5938H24.3555C24.293 20.3203 24.0781 21.9961 23.7188 23.5859L23.707 23.6328C22.0677 23.0112 20.3438 22.6411 18.5938 22.5352ZM18.5938 16.4062V12.4648C20.3828 12.3555 22.1016 11.9766 23.707 11.3672L23.7188 11.4141C24.0781 13.0039 24.293 14.6758 24.3555 16.4062H18.5938ZM16.4062 18.5938V22.5352C14.6172 22.6445 12.8984 23.0234 11.293 23.6328L11.2812 23.5859C10.9219 21.9961 10.707 20.3242 10.6445 18.5938H16.4062ZM10.6445 16.4062C10.707 14.6797 10.9219 13.0039 11.2812 11.4141L11.293 11.3672C12.8984 11.9766 14.6133 12.3555 16.4062 12.4648V16.4062H10.6445ZM16.4062 24.7266V31.9688C16.0469 31.8242 15.6836 31.6133 15.3242 31.3281C14.4961 30.6758 13.6953 29.6602 13.0156 28.3945C12.5859 27.5898 12.207 26.7031 11.8828 25.7461C13.3359 25.1758 14.8477 24.8359 16.4062 24.7266ZM16.4062 10.2734C14.8563 10.1653 13.3321 9.82014 11.8867 9.25C12.2109 8.28906 12.5859 7.40234 13.0195 6.60156C13.6992 5.33594 14.4961 4.32031 15.3281 3.66797C15.6875 3.38672 16.0469 3.17188 16.4102 3.02734V10.2734H16.4062ZM11.7852 3.96484C11.9297 3.90625 12.0703 3.84766 12.2148 3.79297C11.3008 5.01562 10.5156 6.54297 9.90234 8.30078C9.08203 7.83203 8.30469 7.28516 7.58203 6.66797C8.82422 5.52734 10.2344 4.62109 11.7852 3.96484ZM3.96484 11.7852C4.50391 10.5117 5.21484 9.33203 6.08203 8.26172C7.05469 9.10156 8.12109 9.83594 9.26562 10.4453C8.8125 12.2773 8.53125 14.2891 8.45703 16.4062H2.85156C2.96875 14.8086 3.34375 13.2578 3.96484 11.7852ZM2.85156 18.5938H8.45703C8.53125 20.7109 8.8125 22.7227 9.26562 24.5547C8.12649 25.1618 7.05868 25.8942 6.08203 26.7383C4.19699 24.4181 3.06941 21.5752 2.85156 18.5938ZM11.7852 31.0352C10.2344 30.3789 8.82422 29.4727 7.58203 28.332C8.30469 27.7148 9.08203 27.1719 9.90234 26.6992C10.5156 28.457 11.3008 29.9844 12.2148 31.207C12.0703 31.1523 11.9258 31.0938 11.7852 31.0352ZM23.2148 31.0352C23.0703 31.0938 22.9297 31.1523 22.7852 31.207C23.6992 29.9844 24.4844 28.457 25.0977 26.6992C25.918 27.168 26.6953 27.7148 27.418 28.332C26.1827 29.4679 24.7608 30.3823 23.2148 31.0352Z" fill="white" stroke="black" mask="url(#path-1-inside-1_466_105)"/>
</svg>
